<svg xmlns="http://www.w3.org/2000/svg" viewBox="0 0 300 100">
  <!-- Background Mountains -->
  <path d="M0 80 L60 20 L120 80 L180 30 L240 80 L300 40 L300 100 L0 100 Z" fill="#2b6cb0" opacity="0.2"/>
  <path d="M30 90 L90 40 L150 90 L210 50 L270 90 L300 70 L300 100 L0 100 L0 90" fill="#2b6cb0" opacity="0.4"/>
  
  <!-- Stylized Text -->
  <g transform="translate(20, 60)">
    <!-- M -->
    <path d="M10 0 L20 -30 L30 -15 L40 -30 L50 0" stroke="#2b6cb0" stroke-width="4" fill="none"/>
    <!-- O -->
    <circle cx="70" cy="-15" r="15" stroke="#2b6cb0" stroke-width="4" fill="none"/>
    <!-- H -->
    <path d="M100 0 L100 -30 M100 -15 L120 -15 M120 0 L120 -30" stroke="#2b6cb0" stroke-width="4" fill="none"/>
    <!-- M -->
    <path d="M140 0 L150 -30 L160 -15 L170 -30 L180 0" stroke="#2b6cb0" stroke-width="4" fill="none"/>
    <!-- A -->
    <path d="M190 0 L200 -30 L210 0 M195 -15 L205 -15" stroke="#2b6cb0" stroke-width="4" fill="none"/>
    <!-- Y -->
    <path d="M220 -30 L230 -15 L230 0 M230 -15 L240 -30" stroke="#2b6cb0" stroke-width="4" fill="none"/>
    <!-- A -->
    <path d="M250 0 L260 -30 L270 0 M255 -15 L265 -15" stroke="#2b6cb0" stroke-width="4" fill="none"/>
  </g>
  
  <!-- Prayer Flag Accent -->
  <g transform="translate(0, 10)">
    <rect x="0" y="0" width="60" height="4" fill="#e53e3e"/>
    <rect x="60" y="0" width="60" height="4" fill="#ecc94b"/>
    <rect x="120" y="0" width="60" height="4" fill="#48bb78"/>
    <rect x="180" y="0" width="60" height="4" fill="#4299e1"/>
    <rect x="240" y="0" width="60" height="4" fill="#ed64a6"/>
  </g>
</svg>
