<svg xmlns="http://www.w3.org/2000/svg" viewBox="0 0 300 100">
  <!-- Layered Mountains Background -->
  <path d="M0 90 L50 30 L100 90 L150 40 L200 90 L250 20 L300 90 L300 100 L0 100 Z" fill="#2b6cb0" opacity="0.1"/>
  <path d="M30 90 L80 40 L130 90 L180 50 L230 90 L280 30 L300 90 L300 100 L0 100 L0 90" fill="#2b6cb0" opacity="0.2"/>
  <path d="M60 90 L110 50 L160 90 L210 60 L260 90 L300 70 L300 100 L0 100 L0 90" fill="#2b6cb0" opacity="0.3"/>
  
  <!-- Stylized Text with Mountain Peaks -->
  <g transform="translate(20, 65)">
    <!-- M with mountain peak -->
    <path d="M10 0 L25 -40 L40 -20 L55 -40 L70 0" stroke="#2b6cb0" stroke-width="5" fill="none"/>
    <!-- O as a sun/moon -->
    <circle cx="95" cy="-20" r="18" stroke="#2b6cb0" stroke-width="5" fill="none"/>
    <!-- H with mountain peaks -->
    <path d="M130 0 L130 -40 M130 -20 L155 -20 M155 0 L155 -40" stroke="#2b6cb0" stroke-width="5" fill="none"/>
    <!-- M with mountain peak -->
    <path d="M175 0 L190 -40 L205 -20 L220 -40 L235 0" stroke="#2b6cb0" stroke-width="5" fill="none"/>
    <!-- AYA as connected peaks -->
    <path d="M245 0 L260 -40 L275 0 M255 -20 L265 -20" stroke="#2b6cb0" stroke-width="5" fill="none"/>
  </g>
  
  <!-- Prayer Flag Colors as Mountain Reflections -->
  <g transform="translate(0, 95)">
    <rect x="0" y="0" width="60" height="5" fill="#e53e3e" opacity="0.8"/>
    <rect x="60" y="0" width="60" height="5" fill="#ecc94b" opacity="0.8"/>
    <rect x="120" y="0" width="60" height="5" fill="#48bb78" opacity="0.8"/>
    <rect x="180" y="0" width="60" height="5" fill="#4299e1" opacity="0.8"/>
    <rect x="240" y="0" width="60" height="5" fill="#ed64a6" opacity="0.8"/>
  </g>
</svg>
